<?xml version="1.0" encoding="utf-8"?>
<!-- Generator: Adobe Illustrator 22.1.0, SVG Export Plug-In . SVG Version: 6.00 Build 0)  -->
<svg version="1.1" id="Message_And_Communication_Icons"
	 xmlns="http://www.w3.org/2000/svg" xmlns:xlink="http://www.w3.org/1999/xlink" x="0px" y="0px" viewBox="0 0 800 584"
	 style="enable-background:new 0 0 800 584;" xml:space="preserve">
<style type="text/css">
    .st0{fill:hsl(155, 100%, 29.4%)}
    .st1{fill:#414042;}
</style>
<g>
	<g>
		<g>
			<path class="st0" d="M641,276.4c-2.1,0-4.2,0-6.4,0c29.7,25.5,48.9,61.6,48.9,104.1c0,72.2-57.4,131.7-129.6,136
				c23.4,19.1,55.2,31.9,87.1,31.9c74.4,0,136-61.6,136-136S715.4,276.4,641,276.4z"/>
		</g>
	</g>
	<g>
		<g>
			<path class="st0" d="M441.3,391.2c0-2.1,0-2.1,0-4.2h-89.2v82.9h114.7C449.8,446.4,441.3,418.8,441.3,391.2z"/>
		</g>
	</g>
	<g>
		<g>
			<path class="st0" d="M619.8,255.2c27.6,0,53.1,8.5,74.4,21.2v-204L604.9,132v123.2C609.2,255.2,613.4,255.2,619.8,255.2z"/>
		</g>
	</g>
	<g>
		<g>
			<polygon class="st1" points="352.1,250.9 33.4,49.1 46.1,27.9 352.1,221.2 655.9,27.9 668.6,49.1 			"/>
		</g>
	</g>
	<g>
		<g>
			<rect x="86.5" y="297.7" class="st0" width="31.9" height="97.7"/>
		</g>
	</g>
	<g>
		<g>
			<rect x="86.5" y="236.1" class="st0" width="31.9" height="31.9"/>
		</g>
	</g>
	<g>
		<g>
			<polygon class="st1" points="426.4,446.4 27,446.4 27,25.7 675,25.7 675,197.8 649.5,197.8 649.5,51.2 52.5,51.2 52.5,420.9 
				426.4,420.9 			"/>
		</g>
	</g>
	<g>
		<g>
			<polygon class="st1" points="607,454.9 549.7,395.4 566.7,378.4 607,418.8 681.4,344.4 698.4,363.6 			"/>
		</g>
	</g>
	<g>
		<g>
			<path class="st1" d="M619.8,539.9c-82.9,0-148.7-65.9-148.7-148.7s65.9-148.7,148.7-148.7s148.7,65.9,148.7,148.7
				C768.5,471.9,702.6,539.9,619.8,539.9z M619.8,267.9c-68,0-123.2,55.2-123.2,123.2s55.2,123.2,123.2,123.2S743,459.2,743,391.2
				S687.8,267.9,619.8,267.9z"/>
		</g>
	</g>
</g>
</svg>
