<?xml version="1.0" encoding="utf-8"?>
<!-- Generator: Adobe Illustrator 22.1.0, SVG Export Plug-In . SVG Version: 6.00 Build 0)  -->
<svg version="1.1" id="Message_And_Communication_Icons"
	 xmlns="http://www.w3.org/2000/svg" xmlns:xlink="http://www.w3.org/1999/xlink" x="0px" y="0px" viewBox="0 0 800 565"
	 style="enable-background:new 0 0 800 565;" xml:space="preserve">
<style type="text/css">
    .st0{fill:hsl(155, 100%, 29.4%)}
    .st1{fill:#414042;}
</style>
<g>
	<g>
		<g>
			<path class="st0" d="M637.2,272.8c-2.1,0-4.2,0-6.4,0c29.7,25.5,48.8,61.5,48.8,104c0,72.1-57.3,131.6-129.4,135.8
				c23.3,19.1,55.2,31.8,87,31.8c74.3,0,135.8-61.5,135.8-135.8S711.5,272.8,637.2,272.8z"/>
		</g>
	</g>
	<g>
		<g>
			<path class="st0" d="M437.8,387.4c0-2.1,0-2.1,0-4.2h-89.1v82.8h114.6C446.2,442.6,437.8,415,437.8,387.4z"/>
		</g>
	</g>
	<g>
		<g>
			<path class="st0" d="M616,251.6c27.6,0,53,8.5,74.3,21.2V69.1l-89.1,59.4v123.1C605.4,251.6,609.6,251.6,616,251.6z"/>
		</g>
	</g>
	<g>
		<g>
			<polygon class="st1" points="348.6,247.3 30.4,45.8 43.1,24.6 348.6,217.6 652.1,24.6 664.8,45.8 			"/>
		</g>
	</g>
	<g>
		<g>
			<rect x="83.4" y="294" class="st0" width="31.8" height="97.6"/>
		</g>
	</g>
	<g>
		<g>
			<rect x="83.4" y="232.5" class="st0" width="31.8" height="31.8"/>
		</g>
	</g>
	<g>
		<g>
			<polygon class="st1" points="422.9,442.6 24,442.6 24,22.4 671.2,22.4 671.2,194.3 645.7,194.3 645.7,47.9 49.5,47.9 49.5,417.1 
				422.9,417.1 			"/>
		</g>
	</g>
	<g>
		<g>
			<rect x="603.3" y="317.4" class="st1" width="25.5" height="91.2"/>
		</g>
	</g>
	<g>
		<g>
			<rect x="603.3" y="429.8" class="st1" width="25.5" height="23.3"/>
		</g>
	</g>
	<g>
		<g>
			<path class="st1" d="M616,535.9c-82.8,0-148.5-65.8-148.5-148.5S533.2,238.9,616,238.9s148.5,65.8,148.5,148.5
				C764.5,468,698.7,535.9,616,535.9z M616,264.3c-67.9,0-123.1,55.2-123.1,123.1S548.1,510.5,616,510.5s123.1-55.2,123.1-123.1
				S683.9,264.3,616,264.3z"/>
		</g>
	</g>
</g>
</svg>
