<?xml version="1.0" encoding="utf-8"?>
<!-- Generator: Adobe Illustrator 22.1.0, SVG Export Plug-In . SVG Version: 6.00 Build 0)  -->
<svg version="1.1" id="Layer_1" xmlns="http://www.w3.org/2000/svg" xmlns:xlink="http://www.w3.org/1999/xlink" x="0px" y="0px"
	 viewBox="0 0 24 24" style="enable-background:new 0 0 24 24;" xml:space="preserve">
<style type="text/css">
    .st0{fill:none;}
    .st1{fill:#721c24;}
</style>
<path class="st0" d="M0,0h24v24H0V0z"/>
<path class="st1" d="M14.9,1c1,0,1.9,0.4,2.7,1l0.2,0.2l4.1,4.1C22.5,7,22.9,7.9,23,8.9l0,0.2v5.8c0,1-0.4,1.9-1,2.7l-0.2,0.2
	l-4.1,4.1c-0.7,0.7-1.6,1.1-2.6,1.2l-0.2,0H9.1c-1,0-1.9-0.4-2.7-1l-0.2-0.2l-4.1-4.1C1.5,17,1.1,16.1,1,15.1l0-0.2V9.1
	c0-1,0.4-1.9,1-2.7l0.2-0.2l4.1-4.1C7,1.5,7.9,1.1,8.9,1l0.2,0C9.1,1,14.9,1,14.9,1z M12,15l-0.1,0c-0.5,0.1-0.9,0.6-0.9,1.1
	c0.1,0.5,0.4,0.8,0.9,0.9l0.1,0l0.1,0c0.5-0.1,0.9-0.6,0.9-1.1c-0.1-0.5-0.4-0.8-0.9-0.9L12,15z M12,7c-0.5,0-0.9,0.4-1,0.9L11,8v4
	l0,0.1c0.1,0.5,0.6,0.9,1.1,0.9c0.5-0.1,0.8-0.4,0.9-0.9l0-0.1V8l0-0.1C12.9,7.4,12.5,7,12,7z"/>
</svg>
