<?xml version="1.0" encoding="utf-8"?>
<!-- Generator: Adobe Illustrator 22.1.0, SVG Export Plug-In . SVG Version: 6.00 Build 0)  -->
<svg version="1.1" id="Layer_1" xmlns="http://www.w3.org/2000/svg" xmlns:xlink="http://www.w3.org/1999/xlink" x="0px" y="0px"
	 viewBox="0 0 364.5 98.5" style="enable-background:new 0 0 364.5 98.5;" xml:space="preserve">
<style type="text/css">
	.st0{display:none;fill:#00385B;}
	.st1{fill:none;}
	.st2{fill:#FFFFFF;}
	.st3{fill:#414042;}
	.st4{fill:#FFCC3B;}
	.st5{fill:#E32726;}
</style>
<rect x="-27" y="-29" class="st0" width="414" height="146.7"/>
<rect x="-35.2" y="-36.9" class="st1" width="435.4" height="168.3"/>
<g>
	<path class="st2" d="M226.6,47.7c0.1,0,0.2,0,0.3,0c-0.3-0.3-0.7-0.7-1.3-1.1c-2.4-2.5-8.7-10.8-9.2-27.9c0,0-0.1-6.3-0.6-8.2
		c0,0-12.2-2-21,0.8s-10,5.4-26-0.5c-15.9-6-39.8-4.6-42.3-4.5c2,4,2,4,5,9.2c0,0,11.1,18.4,13,30.6c0.5,3.1,0.6,5.6,0.6,5.6
		c0.5-0.3,10.7-3,10.7-3s13.4-4.2,20-4.9c7.6-0.8,7.9,1.7,17,1.8c5.2,0,7.2-1.8,13.8-1.1l0,0c0,0,7.8,0.9,15.3,3.7
		C222.7,47.9,224.1,47.7,226.6,47.7z"/>
	<path class="st3" d="M167.3,28.4c0,0-2-4.7-3-10.5c-21.8-13-37.7-11.7-37.7-11.7c2,4,2,4,5,9.2c24.4,4.4,33.4,13.3,33.4,13.3
		c-12.6,6-20.4,17.3-20.4,17.3c0.5,3.1,0.6,5.6,0.6,5.6c0.5-0.3,10.7-3,10.7-3c5.6-9,14.7-12.8,16.7-13.5
		C170.8,33.6,168.6,31.5,167.3,28.4z"/>
	<g>
		<path class="st3" d="M226.6,47.7c0.1,0,0.2,0,0.3,0l0,0c-2.7-2.8-13.2-10.4-37.5-19.7c0,0,5.5-7,27-9.3c0,0-0.1-6.3-0.6-8.2
			c0,0-13.3-1.5-30.3,9c-0.2,1.5-0.1,4.4,1.3,8c0,0,2.2,4.6-0.5,8.4c1.3,0.3,9,2,20.4,8.6c0,0,7.8,0.9,15.3,3.7
			C222.7,47.9,224.1,47.7,226.6,47.7z"/>
	</g>
	<path class="st4" d="M186.9,27.4c-1.4-3.5-1.4-6.5-1.3-8l0,0c-0.9,0.2-2.3,0.2-2.4,0.2c-2-0.1-4.2-0.8-4.2-0.8
		c-4.3-1.3-7-1.6-7-1.6c-4.5-0.5-7.9,0.5-7.9,0.5l0,0c1,5.8,3,10.5,3,10.5c1.3,3.1,3.5,5.3,5.4,6.7c2.2,1.6,4.1,2.2,4.1,2.2
		c3.6,1.5,4.2,2.2,4.2,2.2c2.5-0.9,4.2-2.1,5.2-3.5c0.1-0.1,0.2-0.2,0.2-0.2C189.2,32,186.9,27.4,186.9,27.4z"/>
	<path class="st5" d="M177.4,33.7c0,0-1.5-1.7,0.9-1.2h0.2c0.2,0,0.4,0,0.5,0.2c0.2,0.5,0.4,0.8,0.9,0.9c0,0,0.5,0.2,1.4,0.2
		c0,0-0.2,0.6-0.7,1c0,0-0.5,0.2-0.4,1c0,0-0.4,0.2-0.9-0.2c0,0-0.7-0.2-0.7,0.4c0,0,0.6-0.2,0.8,0.1c0,0-0.8,0.2-0.4,0.9
		c0,0,0.6,0.2,1.3-0.7c0,0,0.2,0.1,0.2,0.2c0,0-0.8,0.2,0.5,1.2c0,0-0.2-1,0.2-1c0,0,0.5,0.2,0.7,0.7c0,0,0.2-0.7,0.4-0.8
		c0,0-0.9-0.9,0.2-0.7c0,0,0.2-0.1-0.2-0.4c0,0,0.5-0.2,0.7,0c0,0-0.2-0.2-0.1-0.3h0.7c0,0-0.9-0.4,0.4-0.9c0,0-0.6-0.3,0-0.4
		c0,0,0.2,0,0.2-0.7c0,0-1.9,1.1-2.3-1.1c0,0,1.2-0.4,1.6,0.7c0,0,0.2-0.2-0.1-0.9c0,0,0.9-0.4,0.3-2.5c0,0-0.1-0.2,0.5-0.5
		c0,0,0.9-0.5-0.8-1.1c0,0,0.7,0.8-0.1,1c0,0-2-2.4-1-4.5c0,0,0.5-1.2,0.2-2.3c-0.2-0.9-1.6-2.1-3.1-1.3c0,0,1.2,0.3,1.1,1.3
		c-0.1,0.6-0.8,1.4-0.2,3.1c0.3,0.9,0.9,1.9,1.6,2.7c0,0,0.5,0.5,0.7,1.1c0,0-0.4-0.2-0.8-0.2c0,0-1.2-0.2,0.1,1.1
		c-0.2-0.2-0.7-0.8,0.9-0.4c0,0,1,1.9-0.2,2.1c0,0-0.8,0.1-1.3-0.6c0,0-1.1-1.3-1.4-1.7c0,0-1.5-1.3-1.5-3.1c0,0-0.1-0.7,0.5-0.9
		l0,0v-0.1c-1.3-1.3-0.5-2-0.5-2c0.2,0,0.3-0.2,0.3-0.2s-0.7-0.8-0.8-0.9c0-0.2,0.3-0.3,0.3-0.3l-0.4-0.5c-0.4-0.2-0.5-1.2-0.5-1.2
		l-0.3,0.1c-0.2-0.5-0.9-0.9-0.9-0.9c0,0.5-1,0.6-1,0.6c-0.5-0.2-1.2,0-1.2,0c-0.6-0.1,0,0.6,0,0.6c0.2,0.4,0.9,0.7,0.9,0.7l0.7,0.4
		c-0.1,0.2-0.5,0.1-0.5,0.1c-0.6-0.4-1.3-0.2-1.3-0.2c-0.5,0.2-0.6-0.3-0.6-0.3c-0.4,0.7,0.9,0.7,0.9,0.7c0.9,0,1.2,0.4,1.2,0.4
		c-0.8-0.1-0.8,0.3-0.8,0.3c-0.6-0.1-0.8,0.5-0.8,0.5c-0.4,0.2-0.2,0.7-0.2,0.7c0.9,0.9,0.1,0.7-0.7,0.5l-0.5-0.2
		c0.2-0.7-0.6-2-0.6-2c-1.1-1.6-0.6-1.9-0.6-1.9c0.7-0.8-0.2-1-0.2-1c0.2,0.4-0.1,0.5-0.1,0.5c-0.6-0.9-1.2-0.8-1.2-0.8
		c0.8,0.7,0.4,0.9,0.4,0.9c-1-0.9-1.5-0.5-1.5-0.5c0.5,0.1,0.5,0.5,0.5,0.5c0.2,0.4,0.5,0.2,0.5,0.2c0.5,0.4,0,0.5,0,0.5
		c-0.2-0.2-0.3-0.1-0.3-0.1c-0.2,0-0.5,0-0.5,0c0.2,0.7,1.3,0.6,1.3,0.6c0.9,1.3,0.2,1.8,0.2,1.8c0.7,1.3,0,1.3,0,1.3
		c0.4,0.1,0.6,0.4,0.6,0.4c0.2,0.5-0.5,0.4-0.5,0.4c0.4,0.4,1.3,0.4,1.3,0.4c0.5,0.3,0.7,0.5,0.8,0.5c0.3,0.2,0.8,0.3,1.3,0.2
		c0,0.1,0,0.1,0.1,0.2c0,0-1.4,0.9-2.8,0.9c0,0-0.2-0.2-0.5-0.5c0,0-0.5-0.4-0.6,0c0,0,0.6,0.2,0.5,0.5l-0.9-0.2
		c0,0,0.2,0.2,0.2,0.3c0,0,0.2,0.4,0.9,0.2c0,0,0.2,0.2,0.1,0.2c0,0-0.4,0.2-0.2,0.5c0,0,0.4,0,0.5-0.1c0,0,0.2-0.1,0.2-0.3h0.4
		c0,0,0.6-0.1,0.3,0.5c0,0,0.2,0.2,0.5-0.5c0,0,0.4-0.2,0.5,0.3c0,0,0.2-0.5,0.7-0.4c0,0,0,0.2-0.2,0.2c0,0,0.3,0.2,0.5-0.2
		c0,0,0.5-0.2,0.5,0.2c0,0,0.2-0.5,0.2-0.7c0,0,0.8,0.3,0.7,0.5c0,0,0.2,0.2,0.4,0.1c0,0,0.9,0.9,2,1.7c-0.6,0-0.9,0-1.1,0.1
		l-0.3-0.1c0,0-0.7-0.2-0.9,0.2c0,0-0.6,0.3-0.2,1.3c0,0-0.2,0.6-0.5,0.3c0,0-0.6-0.4-1.3-0.5c0,0-0.9-0.3-1.1-0.9c0,0-0.4-0.6-1,0
		c0,0,0.5,0.1,0.5,0.4c0,0,0.2,0.2,0.5,0.2c0,0,0.2,0.2,0.1,0.2c0,0-1.3-0.2-0.9,0.6c0,0,0.2-0.3,0.6,0.1c0,0,0.4,0.1,0.5-0.2
		c0,0,0.5,0.3-0.1,0.8c0,0,0.5,0.3,0.9-0.4c0,0,0.5,0.1,0.8,0.9c0,0,0.5-0.8,0.9,0.1c0,0,0.2-0.5,0.5,0.3c0,0,0.4,0.2,0.7,0
		C176.5,33.6,176.7,33.9,177.4,33.7z"/>
</g>
<g>
	<g>
		<path class="st2" d="M98.1,55.8c-2.2,0.3-2.9,0.8-3,2.4c-0.1,1.4-0.2,2.7-0.2,5.8v14.5h-2L77.6,60.4v8.2c0,3.2,0.1,4.6,0.2,5.7
			c0.1,1.6,0.9,2.4,3.6,2.6v1.3h-9v-1.3c2.1-0.2,3-0.7,3.2-2.4c0.1-1.3,0.2-2.6,0.2-5.8V60c0-1.2-0.1-2-0.8-3
			c-0.7-0.9-1.5-1-3.1-1.2v-1.3H79l13.9,16.2v-6.6c0-3.2,0-4.4-0.1-5.7c-0.1-1.6-0.7-2.3-3.7-2.5v-1.3h9V55.8z"/>
		<path class="st2" d="M112.9,54c6.7,0,12.3,4.9,12.3,12.1c0,7.8-5.5,12.7-12.4,12.7c-7.3,0-12.6-5.3-12.6-12.4
			C100.1,60.1,104.5,54,112.9,54z M112.3,55.6c-3.7,0-6.5,3.6-6.5,10.1c0,6.2,2.4,11.5,7.4,11.5c3.5,0,6.2-3.4,6.2-10
			C119.4,59.9,116.5,55.6,112.3,55.6z"/>
		<path class="st2" d="M151.1,55.8c-2.4,0.3-3.1,0.6-4.5,4c-1.1,2.8-4.9,11.9-7.6,18.7h-2c-1-2.8-5.8-15.4-7.3-19.2
			c-1.1-2.7-1.6-3.3-4-3.5v-1.3h11.1l0,1.3c-2.7,0.4-2.7,0.6-2.1,2.2c1.1,3.1,3.9,10.6,5.1,13.8c2.2-5.2,4.2-10.2,5-12.6
			c0.9-2.5,0.7-3.1-2.4-3.4v-1.3h8.7V55.8z"/>
		<path class="st2" d="M162.7,78.2v-1.3c2.3-0.3,2.3-0.7,1.8-2.3c-0.4-1.1-0.9-2.7-1.5-4.2h-7.1c-0.4,1.1-0.9,2.5-1.3,3.6
			c-0.8,2.3,0.1,2.6,3,2.8v1.3h-9v-1.3c2.3-0.3,2.9-0.6,4.1-3.7l7.6-18.9L162,54c2.3,6.3,4.8,12.8,7.2,18.9c1.4,3.4,1.7,3.6,4,3.9
			v1.3H162.7z M159.4,60.8c-1.1,2.6-2.1,5.1-3,7.7h5.8L159.4,60.8z"/>
		<path class="st2" d="M201,71.8c-0.3,1.6-1.3,5.4-1.6,6.4h-18.1v-1.3c3.2-0.2,3.5-0.5,3.5-3.5V59.4c0-3.1-0.4-3.4-3.1-3.6v-1.3
			h11.4v1.3c-2.8,0.3-3.2,0.5-3.2,3.6v14.2c0,2,0.1,2.9,2.1,3c0.1,0,1.8,0,1.9,0c2.1,0,2.6-0.4,3.5-1.4c0.7-0.7,1.6-2.3,2.3-3.8
			L201,71.8z"/>
		<path class="st2" d="M214.7,78.2v-1.3c2.3-0.3,2.3-0.7,1.8-2.3c-0.4-1.1-0.9-2.7-1.5-4.2h-7.1c-0.4,1.1-0.9,2.5-1.3,3.6
			c-0.8,2.3,0.1,2.6,3,2.8v1.3h-9v-1.3c2.3-0.3,2.9-0.6,4.1-3.7l7.6-18.9L214,54c2.3,6.3,4.8,12.8,7.2,18.9c1.3,3.4,1.7,3.6,4,3.9
			v1.3H214.7z M211.5,60.8c-1.1,2.6-2.1,5.1-3,7.7h5.8L211.5,60.8z"/>
		<path class="st2" d="M251.1,55.8c-2.2,0.3-2.9,0.8-3,2.4c-0.1,1.4-0.2,2.7-0.2,5.8v14.5h-2l-15.2-18.2v8.2c0,3.2,0.1,4.6,0.2,5.7
			c0.1,1.6,0.9,2.4,3.6,2.6v1.3h-9v-1.3c2.1-0.2,3-0.7,3.2-2.4c0.1-1.3,0.2-2.6,0.2-5.8V60c0-1.2-0.1-2-0.8-3
			c-0.7-0.9-1.5-1-3.1-1.2v-1.3h7.1l13.9,16.2v-6.6c0-3.2,0-4.4-0.1-5.7c-0.1-1.6-0.7-2.3-3.7-2.5v-1.3h9V55.8z"/>
		<path class="st2" d="M264.2,54.5c4.7,0,8.1,0.9,10.5,3.1c1.9,1.7,3.2,4.3,3.2,8c0,4.2-1.8,7.4-4.6,9.5c-2.7,2-6.5,3.1-11.1,3.1
			H253v-1.3c2.8-0.2,3.1-0.5,3.1-3.6V59.4c0-3.1-0.4-3.4-3.1-3.6v-1.3H264.2z M261.2,73c0,2.6,0.7,3.5,3.3,3.5
			c4.9,0,7.8-3.4,7.8-10.3c0-3.5-0.9-6.5-2.6-8.1c-1.5-1.5-3.4-2-5.9-2c-1.3,0-2,0.3-2.2,0.5c-0.3,0.3-0.4,0.9-0.4,2V73z"/>
	</g>
</g>
</svg>
