<?xml version="1.0" encoding="utf-8"?>
<!-- Generator: Adobe Illustrator 22.1.0, SVG Export Plug-In . SVG Version: 6.00 Build 0)  -->
<svg version="1.1" id="_x31_-outline-expand" xmlns="http://www.w3.org/2000/svg" xmlns:xlink="http://www.w3.org/1999/xlink"
	 x="0px" y="0px" viewBox="0 0 800 800" style="enable-background:new 0 0 800 800;" xml:space="preserve">
<style type="text/css">
	.st0{fill:#009658;}
	.st1{fill:#E0C494;}
	.st2{fill:#F2DAAE;}
	.st3{fill:#414042;}
	.st4{fill:#D36767;}
</style>
<path class="st0" d="M37.5,775v-62.5c0-41.4,33.6-75,75-75h575c41.4,0,75,33.6,75,75V775H37.5z"/>
<polygon class="st1" points="300,537.5 300,637.5 400,700 500,637.5 500,537.5 "/>
<path class="st2" d="M550,200v-12.5H202.6c-4.8,0-9.5-0.4-14.1-1.3c-8.6,23.9-13.5,49.5-13.5,76.3v100c0,124.3,100.7,225,225,225
	s225-100.7,225-225V275C583.6,275,550,241.4,550,200z"/>
<path class="st1" d="M150,275c-27.6,0-50,22.4-50,50s22.4,50,50,50h25V275H150z"/>
<path class="st1" d="M650,275h-25v100h25c27.6,0,50-22.4,50-50S677.6,275,650,275z"/>
<path class="st3" d="M225,62.5c-16,0-29.6-10.1-35-24.3c-40.1,5.4-70.3,42.4-64.2,85.2c5.3,37.4,39.1,64.1,76.9,64.1H550V200
	c0,41.4,33.6,75,75,75v-12.5c0-110.5-89.5-200-200-200H225z"/>
<path class="st4" d="M337.5,500c0-34.5,28-62.5,62.5-62.5s62.5,28,62.5,62.5H337.5z"/>
<polygon class="st4" points="475,25 612.5,25 587.5,100 625,100 525,237.5 525,112.5 487.5,112.5 "/>
<polygon class="st3" points="280.6,373.7 269.4,351.3 322,325 269.4,298.7 280.6,276.3 378,325 "/>
<polygon class="st3" points="519.4,373.7 422,325 519.4,276.3 530.6,298.7 478,325 530.6,351.3 "/>
</svg>
