<?xml version="1.0" encoding="utf-8"?>
<!-- Generator: Adobe Illustrator 22.1.0, SVG Export Plug-In . SVG Version: 6.00 Build 0)  -->
<svg version="1.1" id="_x31_-outline-expand" xmlns="http://www.w3.org/2000/svg" xmlns:xlink="http://www.w3.org/1999/xlink"
	 x="0px" y="0px" viewBox="0 0 800 800" style="enable-background:new 0 0 800 800;" xml:space="preserve">
<style type="text/css">
	.st0{fill:#414042;}
	.st1{opacity:0.51;fill:#FFCC3B;}
	.st2{fill:#AA494A;}
	.st3{opacity:0.5;fill:#FFCC3B;}
	.st4{fill:#F7EEDC;}
	.st5{fill:#009658;}
	.st6{fill:#3A4249;}
	.st7{fill:#E0C485;}
	.st8{fill:#D36767;}
</style>
<path class="st0" d="M762.5,750v25h-725v-25c7.8-23.3,21.4-43.5,39-59.3c17.8-15.8,39.5-27,63.4-32l27.5-5.8
	c48.8,50.8,134.8,84.5,232.6,84.5s183.9-33.8,232.6-84.5l27.5,5.8C708,668.8,747,703.5,762.5,750z"/>
<path class="st1" d="M539.8,633l92.9,19.6c-48.8,50.8-134.7,84.5-232.6,84.5s-183.9-33.8-232.6-84.5l92.9-19.6
	c23.1-4.9,39.8-25.3,39.8-49v-33h200v33C500,607.8,516.6,628.1,539.8,633z"/>
<path class="st2" d="M625,137.5h-30.4c15.5,26.8,25.9,57,29.2,89.4c0.7,3.4,1.2,6.9,1.2,10.6V250v100v87.5
	c0,75.9,61.6,137.5,137.5,137.5V275C762.5,199.1,700.9,137.5,625,137.5z"/>
<path class="st3" d="M625,262.5V350c0,124.2-100.8,225-225,225S175,474.2,175,350v-87.5V250c0-124.2,100.8-225,225-225
	c62.1,0,118.4,25.3,159.1,65.9c40.6,40.8,65.9,97,65.9,159.1V262.5z"/>
<path class="st4" d="M550,525L550,525c-6.3-2.9-9-10.3-6.1-16.6l64.5-139.8c2.9-6.3,10.3-9,16.6-6.1h0c6.3,2.9,9,10.3,6.1,16.6
	l-64.5,139.8C563.7,525.2,556.3,527.9,550,525z"/>
<path class="st4" d="M233.4,518.9l-64.5-139.8c-2.9-6.3-0.2-13.7,6.1-16.6h0c6.3-2.9,13.7-0.2,16.6,6.1l64.5,139.8
	c2.9,6.3,0.2,13.7-6.1,16.6C243.7,527.9,236.3,525.2,233.4,518.9z"/>
<path class="st5" d="M550,375l-150-25l-150,25v150c88.9,66.7,211.1,66.7,300,0V375z"/>
<circle class="st6" cx="312.5" cy="312.5" r="25"/>
<circle class="st6" cx="487.5" cy="312.5" r="25"/>
<path class="st7" d="M150,350h25V250h-25c-27.6,0-50,22.4-50,50S122.4,350,150,350z"/>
<path class="st7" d="M650,250h-25v100h25c27.6,0,50-22.4,50-50S677.6,250,650,250z"/>
<path class="st8" d="M625,250v12.5c-158.9,0-287.5-61.5-287.5-137.5c0,76-72.6,137.5-162.5,137.5V250c0-124.2,100.8-225,225-225
	c62.1,0,118.4,25.3,159.1,65.9C599.8,131.6,625,187.9,625,250z"/>
<path class="st4" d="M232.4,373.6l-58.7-68.5c-4.5-5.3-3.9-13.1,1.3-17.6c5.3-4.5,13.1-3.9,17.6,1.4l58.7,68.5
	c4.5,5.3,3.9,13.1-1.4,17.6C244.8,379.5,236.9,378.9,232.4,373.6z"/>
<path class="st4" d="M550,375L550,375c-5.5-4.2-6.6-12-2.5-17.5l60-80c4.1-5.5,12-6.6,17.5-2.5c5.5,4.2,6.6,12,2.5,17.5l-60,80
	C563.4,378,555.5,379.2,550,375z"/>
<path class="st6" d="M250,425L250,425c-1.3-6.8,3-13.4,9.8-14.7l38-7.6c6.8-1.4,13.4,3,14.7,9.8s-3,13.4-9.8,14.7l-38,7.6
	C257.9,436.2,251.3,431.8,250,425z"/>
<path class="st6" d="M297.8,497.3l-38-7.6c-6.8-1.4-11.2-8-9.8-14.7c1.3-6.8,7.9-11.2,14.7-9.8l38,7.6c6.8,1.4,11.2,7.9,9.8,14.7
	C311.1,494.3,304.6,498.6,297.8,497.3z"/>
<path class="st6" d="M535.3,434.8l-38-7.6c-6.8-1.4-11.2-8-9.8-14.7c1.4-6.8,7.9-11.2,14.7-9.8l38,7.6c6.8,1.4,11.1,7.9,9.8,14.7
	C548.6,431.8,542.1,436.1,535.3,434.8z"/>
<path class="st6" d="M487.5,487.5L487.5,487.5c-1.4-6.8,3-13.4,9.8-14.7l38-7.6c6.8-1.4,13.4,3,14.7,9.8s-3,13.4-9.8,14.7l-38,7.6
	C495.4,498.7,488.9,494.3,487.5,487.5z"/>
</svg>
