<?xml version="1.0" encoding="utf-8"?>
<!-- Generator: Adobe Illustrator 22.1.0, SVG Export Plug-In . SVG Version: 6.00 Build 0)  -->
<svg version="1.1" id="_x31_-outline-expand" xmlns="http://www.w3.org/2000/svg" xmlns:xlink="http://www.w3.org/1999/xlink"
	 x="0px" y="0px" viewBox="0 0 800 800" style="enable-background:new 0 0 800 800;" xml:space="preserve">
<style type="text/css">
	.st0{opacity:0.5;fill:#009658;}
	.st1{opacity:0.7;fill:#009658;}
	.st2{fill:#3A4249;}
	.st3{fill:#414042;}
	.st4{fill:#FFCC3B;}
</style>
<polygon class="st0" points="347.2,301.8 253.2,43.4 323.7,17.8 488.2,250.5 "/>
<path class="st1" d="M60,353.2l564.7-205.5c14.3-5.2,30.1-3.6,43.1,4.3l47.8,29.1c26-9.4,54.7,3.9,64.1,29.9
	c9.4,25.9-3.9,54.6-29.9,64.1L350.5,420.4l-264.8,3.3L60,353.2z"/>
<polygon class="st0" points="64.2,218.6 17.2,235.7 60,353.2 154,319 "/>
<polygon class="st0" points="364.4,348.8 458.4,607.2 528.9,581.6 505.3,297.5 "/>
<rect x="639" y="171.8" transform="matrix(0.9398 -0.3417 0.3417 0.9398 -22.6277 240.1263)" class="st2" width="62.5" height="25"/>
<rect x="557.9" y="208.1" transform="matrix(0.9397 -0.3419 0.3419 0.9397 -41.0447 208.3194)" class="st2" width="25" height="25"/>
<rect x="510.9" y="225.2" transform="matrix(0.9397 -0.3419 0.3419 0.9397 -49.7232 193.2848)" class="st2" width="25" height="25"/>
<rect x="463.9" y="242.3" transform="matrix(0.9397 -0.3419 0.3419 0.9397 -58.4037 178.2561)" class="st2" width="25" height="25"/>
<rect x="417" y="259.4" transform="matrix(0.9397 -0.3419 0.3419 0.9397 -67.0823 163.2215)" class="st2" width="25" height="25"/>
<rect x="370" y="276.5" transform="matrix(0.9397 -0.3419 0.3419 0.9397 -75.7607 148.1873)" class="st2" width="25" height="25"/>
<rect x="323" y="293.6" transform="matrix(0.9397 -0.3419 0.3419 0.9397 -84.4391 133.1532)" class="st2" width="25" height="25"/>
<rect x="276" y="310.7" transform="matrix(0.9397 -0.3419 0.3419 0.9397 -93.1177 118.1185)" class="st2" width="25" height="25"/>
<rect x="229" y="327.8" transform="matrix(0.9396 -0.3423 0.3423 0.9396 -101.9018 103.2348)" class="st2" width="25" height="25"/>
<rect x="182" y="344.9" transform="matrix(0.9396 -0.3423 0.3423 0.9396 -110.5936 88.1832)" class="st2" width="25" height="25"/>
<path class="st3" d="M450,675H237.5c-41.4,0-75-33.6-75-75s33.6-75,75-75H325v25h-87.5c-27.6,0-50,22.4-50,50s22.4,50,50,50H450V675
	z"/>
<rect x="475" y="650" class="st3" width="25" height="25"/>
<path class="st3" d="M631.3,762.5H237.5v-25h393.8c17.2,0,31.3-14,31.3-31.3s-14-31.3-31.3-31.3H525v-25h106.3
	c31,0,56.3,25.2,56.3,56.3S662.3,762.5,631.3,762.5z"/>
<rect x="87.5" y="737.5" class="st3" width="125" height="25"/>
<circle class="st4" cx="62.5" cy="750" r="37.5"/>
<circle class="st4" cx="350" cy="537.5" r="37.5"/>
</svg>
