<?xml version="1.0" encoding="utf-8"?>
<!-- Generator: Adobe Illustrator 22.1.0, SVG Export Plug-In . SVG Version: 6.00 Build 0)  -->
<svg version="1.1" id="Capa_1" xmlns="http://www.w3.org/2000/svg" xmlns:xlink="http://www.w3.org/1999/xlink" x="0px" y="0px"
	 viewBox="0 0 455.7 455.7" style="enable-background:new 0 0 455.7 455.7;" xml:space="preserve">
<style type="text/css">
	.st0{fill:#FFFFFF;}
</style>
<path class="st0" d="M414.9,0h-374C18.3,0,0,18.3,0,40.9v374c0,22.6,18.3,40.9,40.9,40.9h374c22.6,0,40.9-18.3,40.9-40.9v-374
	C455.7,18.3,437.4,0,414.9,0z M361.3,163.9c0.1,2.7,0.2,5.4,0.2,8.1c0,108.3-87.8,196.2-196.2,196.2c-38.6,0-74.5-11.1-104.9-30.4
	c59.3,8.8,101-28.9,101-28.9c-52.8-4.1-63.3-48.1-63.3-48.1c18.7,3.2,30.4-1.3,30.4-1.3c-59.5-13.9-54.4-68.3-54.4-68.3
	c13.8,8.2,29.7,8.9,29.7,8.9C51.3,153.9,84.3,109,84.3,109c55.1,66.7,136,71.2,141.3,71.4c-1.2-5-1.8-10.2-1.8-15.6
	c0-38,30.8-68.8,68.8-68.8c19.8,0,37.7,8.4,50.3,21.8c3.5-1,6.9-2,10.1-3.1c19.5-6.5,33.4-13.9,33.4-13.9
	c-3.4,20.1-28.2,37-29.9,38.2c-0.1,0-0.1,0.1-0.1,0.1c0,0,0.1,0,0.1,0c19-1.9,38.3-9.9,38.9-10.1
	C389.4,141.4,365.2,160.9,361.3,163.9z"/>
</svg>
