<?xml version="1.0" encoding="utf-8"?>
<!-- Generator: Adobe Illustrator 22.1.0, SVG Export Plug-In . SVG Version: 6.00 Build 0)  -->
<svg version="1.1" id="_x31_-outline-expand" xmlns="http://www.w3.org/2000/svg" xmlns:xlink="http://www.w3.org/1999/xlink"
	 x="0px" y="0px" viewBox="0 0 800 800" style="enable-background:new 0 0 800 800;" xml:space="preserve">
<style type="text/css">
	.st0{opacity:0.5;fill:#FFCC3B;}
	.st1{fill:#FFCC3B;}
	.st2{fill:#AA494A;}
	.st3{fill:#D36767;}
	.st4{fill:#414042;}
	.st5{opacity:0.7;fill:#009658;}
	.st6{fill:#009658;}
</style>
<path class="st0" d="M300,362.5V300H150v62.5c-62.1,0-112.5,50.4-112.5,112.5v300h375V475C412.5,412.9,362.1,362.5,300,362.5
	L300,362.5z"/>
<rect x="212.5" y="462.5" class="st1" width="25" height="50"/>
<rect x="200" y="450" class="st1" width="50" height="25"/>
<rect x="136.7" y="506.2" transform="matrix(0.5 -0.866 0.866 0.5 -385.4558 394.8359)" class="st1" width="25" height="50"/>
<rect x="102.6" y="506.2" transform="matrix(0.4999 -0.8661 0.8661 0.4999 -385.4637 369.9262)" class="st1" width="50" height="25"/>
<rect x="124.2" y="606.3" transform="matrix(0.8661 -0.4999 0.4999 0.8661 -289.3369 157.4537)" class="st1" width="50" height="25"/>
<rect x="115.1" y="606.2" transform="matrix(0.866 -0.5 0.5 0.866 -298.5398 148.3551)" class="st1" width="25" height="50"/>
<rect x="212.5" y="637.5" class="st1" width="25" height="50"/>
<rect x="200" y="675" class="st1" width="50" height="25"/>
<rect x="288.3" y="593.7" transform="matrix(0.5 -0.866 0.866 0.5 -385.4612 569.827)" class="st1" width="25" height="50"/>
<rect x="297.4" y="618.7" transform="matrix(0.4999 -0.8661 0.8661 0.4999 -385.4463 594.9395)" class="st1" width="50" height="25"/>
<rect x="275.8" y="518.8" transform="matrix(0.8661 -0.4999 0.4999 0.8661 -225.301 221.4982)" class="st1" width="50" height="25"/>
<rect x="309.9" y="493.8" transform="matrix(0.866 -0.5 0.5 0.866 -216.1853 230.7109)" class="st1" width="25" height="50"/>
<path class="st2" d="M300,575c0,41.4-33.6,75-75,75s-75-33.6-75-75s33.6-75,75-75S300,533.6,300,575L300,575z"/>
<path class="st3" d="M275,575c0,27.6-22.4,50-50,50s-50-22.4-50-50s22.4-50,50-50S275,547.4,275,575L275,575z"/>
<rect x="112.5" y="212.5" class="st4" width="225" height="87.5"/>
<rect x="662.5" y="187.5" class="st5" width="50" height="100"/>
<rect x="625" y="287.5" class="st6" width="125" height="387.5"/>
<rect x="650" y="675" class="st4" width="75" height="87.5"/>
<rect x="600" y="750" class="st4" width="175" height="25"/>
<rect x="675" y="25" class="st4" width="25" height="162.5"/>
<rect x="712.5" y="350" class="st4" width="37.5" height="25"/>
<rect x="712.5" y="400" class="st4" width="37.5" height="25"/>
<rect x="687.5" y="450" class="st4" width="62.5" height="25"/>
<rect x="712.5" y="500" class="st4" width="37.5" height="25"/>
<rect x="712.5" y="550" class="st4" width="37.5" height="25"/>
<rect x="687.5" y="600" class="st4" width="62.5" height="25"/>
<path class="st4" d="M618.8,229.3c-4.9-6.6-10.2-13.2-15.7-19.4l18.8-16.6c6,6.8,11.8,13.9,17.1,21.2L618.8,229.3z M585.8,191.8
	c-6-5.7-12.3-11.2-18.8-16.4l15.6-19.5c7.1,5.7,14,11.7,20.5,17.9L585.8,191.8z M198.1,183.7l-16.5-18.8c6.8-5.9,13.9-11.7,21.2-17
	l14.8,20.1C210.9,173,204.3,178.3,198.1,183.7z M546.7,160.6c-6.9-4.6-14.1-9-21.4-13l12-21.9c7.9,4.3,15.8,9.1,23.3,14.1
	L546.7,160.6z M238.4,154.1l-13-21.4c7.7-4.7,15.8-9.1,23.8-13.1l11.1,22.4C252.9,145.8,245.5,149.8,238.4,154.1z M502.8,136.6
	c-7.6-3.3-15.5-6.4-23.3-9l8-23.7c8.6,2.9,17.1,6.2,25.4,9.8L502.8,136.6z M283.2,132l-9.1-23.3c8.4-3.3,17.1-6.2,25.8-8.8l7,24
	C299,126.3,291,129,283.2,132z M455.4,120.6c-8.1-1.9-16.4-3.6-24.6-4.8l3.7-24.7c9,1.3,18,3.1,26.7,5.3L455.4,120.6z M331.2,118
	l-4.9-24.5c8.9-1.8,17.9-3.2,26.9-4.1l2.7,24.8C347.7,115.1,339.4,116.4,331.2,118z M406,113.1c-6.1-0.4-12.3-0.6-18.5-0.6l-6.6,0.1
	l-0.5-25c9-0.2,18.2,0,27.2,0.6L406,113.1z"/>
<path class="st4" d="M440.2,708.1l-4.2-24.7c8.1-1.4,16.1-3.1,24-5.2l6.3,24.2C457.8,704.7,449,706.6,440.2,708.1z M491.9,694.6
	l-8.3-23.6c7.6-2.7,15.3-5.8,22.8-9.2l10.3,22.8C508.6,688.3,500.3,691.7,491.9,694.6z M540.6,672.5l-12.3-21.8
	c7.1-4,14.1-8.3,20.9-13l14.1,20.6C556,663.4,548.3,668.2,540.6,672.5z M584.7,642.4l-15.8-19.4c6.3-5.2,12.5-10.7,18.4-16.3
	l17.4,18C598.3,630.9,591.6,636.8,584.7,642.4z"/>
<path class="st1" d="M393.7,235.2c26.4-6.8,47.2-27.6,54-54c0.6-2.5,4-2.5,4.7,0c6.8,26.4,27.6,47.2,54,54c2.5,0.6,2.5,4,0,4.7
	c-26.5,6.8-47.2,27.6-54,54c-0.6,2.5-4,2.5-4.7,0c-6.8-26.4-27.6-47.2-54-54C391.1,239.2,391.1,235.8,393.7,235.2L393.7,235.2z"/>
</svg>
